<?xml version="1.0" encoding="UTF-8"?><svg id="Layer_1" xmlns="http://www.w3.org/2000/svg" viewBox="0 0 101.54 88.18"><defs><style>.cls-1{fill:#fff;}</style></defs><path class="cls-1" d="M69.14,41.61v-3.83h12.5v50.07h-12.5v-3.87h8.27s0-42.37,0-42.37h-8.27Z"/><path class="cls-1" d="M68.81,37.44h13.17v50.74h-13.17v-4.54h8.27s0-41.7,0-41.7h-8.27v-4.5ZM81.31,38.11h-11.83s0,3.16,0,3.16h8.27v43.03h-8.27s0,3.2,0,3.2h11.83s0-49.4,0-49.4Z"/><path class="cls-1" d="M12.83,83.68v3.83H.33v-50.07h12.5v3.87H4.57v42.37h8.27Z"/><path class="cls-1" d="M13.17,87.85H0v-50.74h13.17v4.54H4.9v41.7h8.27v4.5ZM.67,87.18h11.83v-3.16H4.23v-43.03h8.27v-3.2H.67v49.4Z"/><path class="cls-1" d="M42.71,60.2c-.97,1.26-2.06,2.54-3.29,3.84-1.22,1.3-2.48,2.53-3.77,3.69-1.29,1.16-2.61,2.21-3.97,3.14s-2.64,1.66-3.87,2.19c-.97.4-1.85.68-2.66.85-.81.16-1.56.25-2.27.25-3.55,0-5.32-1.53-5.32-4.59,0-1.2.26-2.46.77-3.79,1.22-3.13,2.95-5.9,5.17-8.33,2.22-2.43,4.62-4.21,7.2-5.34.77-.33,1.42-.5,1.93-.5,2.38,0,3.58.96,3.58,2.89,0,1-.23,1.76-.68,2.3-.39.4-1.03.96-1.93,1.7l-.29-.1c.19-.53.29-1.1.29-1.7,0-.66-.24-1.3-.73-1.89-.48-.6-1.24-.9-2.27-.9-1.22,0-2.4.42-3.53,1.25-1.13.83-2.13,1.93-3,3.29s-1.56,2.93-2.08,4.69-.77,3.58-.77,5.44c0,1.4.37,2.45,1.11,3.14s1.66,1.05,2.76,1.05c1.81,0,4.24-1.08,7.3-3.24,3.06-2.16,6.33-5.44,9.82-9.83.32-.33.56-.42.73-.25.16.17.08.42-.24.75Z"/><path class="cls-1" d="M22.88,74.5c-3.74,0-5.64-1.66-5.64-4.92,0-1.24.27-2.55.8-3.91,1.23-3.15,2.99-5.98,5.24-8.44,2.24-2.45,4.7-4.27,7.31-5.42.82-.35,1.5-.52,2.06-.52,3.22,0,3.9,1.75,3.9,3.22,0,1.08-.25,1.92-.76,2.52-.41.43-1.06.99-1.98,1.74l-.14.11-.78-.26.12-.33c.18-.49.27-1.02.27-1.58s-.22-1.15-.65-1.68c-.42-.53-1.08-.78-2.02-.78-1.15,0-2.27.4-3.34,1.19-1.09.8-2.07,1.88-2.92,3.21-.85,1.33-1.53,2.88-2.04,4.6-.5,1.72-.76,3.52-.76,5.34,0,1.29.34,2.27,1.01,2.9.68.64,1.52.96,2.54.96,1.73,0,4.13-1.07,7.12-3.18,3.02-2.13,6.3-5.42,9.75-9.76.64-.66,1.03-.45,1.2-.28.17.18.37.58-.23,1.21-.96,1.26-2.07,2.55-3.3,3.85-1.22,1.3-2.5,2.54-3.79,3.71-1.3,1.17-2.65,2.24-4,3.17-1.36.94-2.68,1.69-3.92,2.22-.98.41-1.9.7-2.72.87-.84.17-1.62.25-2.34.25ZM32.65,51.95c-.47,0-1.08.16-1.81.47-2.53,1.11-4.91,2.88-7.09,5.26-2.19,2.39-3.91,5.16-5.11,8.23-.5,1.28-.75,2.51-.75,3.67,0,2.86,1.63,4.26,5,4.26.67,0,1.42-.08,2.21-.24.79-.16,1.66-.45,2.6-.83,1.2-.52,2.48-1.25,3.81-2.16.49-.34.98-.69,1.47-1.07-.13.09-.25.18-.38.27-5.1,3.6-8.38,4.13-10.46,2.17-.81-.76-1.22-1.9-1.22-3.39,0-1.89.26-3.75.79-5.53.52-1.79,1.24-3.39,2.12-4.78.89-1.39,1.93-2.53,3.08-3.38,1.18-.87,2.43-1.31,3.72-1.31,1.13,0,1.98.34,2.52,1.02.53.66.8,1.37.8,2.11,0,.42-.04.82-.13,1.21.69-.57,1.2-1.02,1.52-1.35.38-.45.58-1.15.58-2.06,0-1.1-.34-2.56-3.25-2.56ZM42.64,59.77s-.11.09-.19.17c-1.22,1.54-2.42,2.95-3.6,4.22.11-.12.22-.23.33-.35,1.22-1.29,2.32-2.57,3.27-3.81l.02-.03c.08-.08.13-.15.17-.2Z"/><path class="cls-1" d="M101.22,7.82c0,1.06-.05,1.86-.14,2.39-.1.53-.19.9-.29,1.1-.1.2-.19.25-.29.15-.1-.1-.15-.21-.15-.35,0-.46-.11-1.1-.34-1.89-.23-.8-.68-1.58-1.35-2.35-.68-.77-1.63-1.43-2.85-2-1.23-.56-2.81-.85-4.74-.85-1.68,0-3.4.25-5.17.75-1.77.5-3.69,1.46-5.75,2.89-2.07,1.43-4.27,3.41-6.63,5.94-2.35,2.53-4.92,5.8-7.69,9.83-2.77,4.03-5.79,8.92-9.04,14.67-3.26,5.76-6.82,12.56-10.69,20.4.45-.4,1.16-1,2.13-1.8.97-.8,2.03-1.59,3.19-2.39s2.29-1.5,3.38-2.09c1.1-.6,2.03-.9,2.81-.9.58,0,.87.23.87.7,0,.4-.29,1-.87,1.8-.52.8-1.19,1.9-2.03,3.29-.84,1.4-1.66,2.89-2.47,4.49-.81,1.59-1.5,3.16-2.08,4.69-.58,1.53-.87,2.76-.87,3.69,0,1.07.26,1.86.77,2.39.51.54,1.22.8,2.13.8,1.48,0,3.58-1,6.29-2.99,2.71-2,5.8-5.39,9.28-10.18.13-.13.26-.2.39-.2s.19.13.19.4c-1.23,1.79-2.66,3.59-4.3,5.39-1.64,1.8-3.32,3.43-5.03,4.89-1.71,1.46-3.42,2.64-5.13,3.54-1.71.9-3.27,1.35-4.69,1.35-1.1,0-1.97-.32-2.61-.95-.65-.63-.97-1.51-.97-2.64,0-1.06.35-2.43,1.06-4.09.71-1.66,1.5-3.35,2.37-5.04.87-1.7,1.66-3.26,2.37-4.69.71-1.43,1.06-2.44,1.06-3.04,0-.33-.1-.5-.29-.5-.58,0-1.63.57-3.14,1.7-1.52,1.13-3.4,3.26-5.66,6.39-.9,1.66-1.84,3.39-2.8,5.19-.97,1.79-1.81,3.39-2.52,4.79-.52,1.07-1,1.6-1.45,1.6-.32,0-.74-.08-1.26-.25-.52-.17-.77-.48-.77-.95,0-.33.1-.7.29-1.1,2.71-5.05,5.35-9.83,7.93-14.32,2.58-4.49,5.19-8.9,7.83-13.22,3.09-4.99,6.3-10.08,9.62-15.27,3.32-5.19,6.72-9.91,10.2-14.17,3.48-4.25,7.01-7.73,10.59-10.43,3.58-2.7,7.17-4.04,10.78-4.04.9,0,1.84.12,2.8.35.97.23,1.89.62,2.76,1.15.87.53,1.58,1.28,2.13,2.25s.82,2.21.82,3.74Z"/><path class="cls-1" d="M50.06,75.7c-1.18,0-2.13-.35-2.83-1.04-.71-.7-1.07-1.67-1.07-2.89,0-1.11.37-2.53,1.09-4.22.71-1.66,1.51-3.36,2.38-5.06.87-1.69,1.66-3.25,2.37-4.69.85-1.71,1.03-2.52,1.03-2.89,0-.08,0-.13-.01-.16-.32.02-1.1.28-2.91,1.63-1.48,1.1-3.36,3.23-5.59,6.31-.88,1.63-1.81,3.36-2.78,5.15-.95,1.77-1.8,3.38-2.51,4.78-.59,1.21-1.14,1.78-1.74,1.78-.36,0-.8-.09-1.35-.27-.83-.27-1-.84-1-1.27,0-.38.11-.8.33-1.25,2.72-5.08,5.39-9.9,7.94-14.34,2.53-4.41,5.17-8.86,7.84-13.23,3.1-4.99,6.33-10.13,9.63-15.27,3.31-5.17,6.75-9.95,10.22-14.2,3.49-4.26,7.07-7.79,10.65-10.48,3.61-2.72,7.31-4.1,10.97-4.1.92,0,1.89.12,2.88.36.99.24,1.95.64,2.85,1.18.91.56,1.67,1.36,2.24,2.37.57,1.01.87,2.33.87,3.91,0,1.1-.05,1.9-.15,2.46-.1.56-.21.95-.32,1.18-.04.09-.17.34-.42.38-.08.01-.24.01-.39-.14-.16-.16-.24-.36-.24-.58,0-.43-.11-1.04-.33-1.8-.21-.75-.64-1.49-1.28-2.21-.64-.72-1.56-1.37-2.75-1.92-1.18-.54-2.73-.82-4.61-.82-1.64,0-3.35.25-5.09.74-1.73.48-3.63,1.44-5.66,2.85-2.03,1.41-4.25,3.39-6.57,5.89-2.34,2.51-4.91,5.81-7.66,9.79-2.76,4.01-5.8,8.94-9.03,14.64-3.04,5.36-6.38,11.73-9.96,18.95.27-.23.58-.48.92-.77.98-.8,2.06-1.61,3.21-2.41,1.17-.8,2.32-1.52,3.41-2.11,1.16-.63,2.12-.94,2.96-.94,1.08,0,1.19.72,1.19,1.03,0,.48-.31,1.13-.94,2-.5.78-1.18,1.88-2.01,3.27-.83,1.38-1.65,2.88-2.46,4.47-.79,1.55-1.48,3.12-2.07,4.65-.56,1.49-.85,2.69-.85,3.57,0,.97.23,1.7.68,2.16.45.47,1.07.7,1.9.7,1.41,0,3.46-.99,6.1-2.93,2.67-1.97,5.77-5.37,9.21-10.11.22-.23.43-.33.65-.33.12,0,.52.05.52.73v.11l-.06.09c-1.23,1.8-2.69,3.63-4.33,5.42-1.64,1.8-3.35,3.45-5.06,4.92-1.72,1.47-3.47,2.68-5.19,3.58-1.75.92-3.37,1.38-4.84,1.38ZM53.05,54.08c.14,0,.61.06.61.83,0,.66-.36,1.7-1.1,3.2-.71,1.43-1.5,3-2.37,4.69-.87,1.69-1.66,3.38-2.36,5.02-.69,1.61-1.04,2.94-1.04,3.95s.28,1.83.87,2.4c.59.58,1.37.86,2.39.86,1.36,0,2.89-.44,4.54-1.31,1.26-.66,2.54-1.5,3.82-2.48-2.25,1.52-4.01,2.27-5.36,2.27-.99,0-1.78-.3-2.36-.9-.58-.59-.87-1.47-.87-2.63,0-.97.3-2.25.89-3.81.59-1.56,1.3-3.15,2.09-4.72.81-1.6,1.64-3.12,2.48-4.51.84-1.39,1.52-2.51,2.04-3.3.71-.98.82-1.43.82-1.61,0-.15,0-.36-.55-.36-.71,0-1.61.29-2.65.86-1.08.59-2.21,1.29-3.36,2.08,0,0-.01.01-.02.02.63-.35,1.12-.53,1.49-.53ZM92.71.67c-3.53,0-7.09,1.34-10.59,3.98-3.54,2.66-7.08,6.15-10.53,10.37-3.46,4.23-6.89,8.99-10.18,14.14-3.29,5.14-6.53,10.28-9.62,15.26-2.67,4.36-5.3,8.81-7.83,13.21-2.55,4.43-5.21,9.24-7.93,14.31-.16.34-.25.66-.25.94,0,.22.07.47.55.63.48.16.87.23,1.16.23.14,0,.54-.14,1.16-1.41.72-1.41,1.57-3.03,2.52-4.8.97-1.8,1.9-3.53,2.8-5.19,1.67-2.32,3.15-4.11,4.43-5.35-1.01.83-1.67,1.39-2.1,1.77l-1.24,1.1.74-1.51c3.85-7.82,7.45-14.69,10.7-20.42,3.24-5.72,6.29-10.67,9.06-14.69,2.76-4.01,5.36-7.33,7.72-9.87,2.36-2.53,4.61-4.55,6.68-5.98,2.09-1.45,4.05-2.43,5.85-2.94,1.79-.51,3.56-.76,5.26-.76,1.96,0,3.6.29,4.87.88,1.27.59,2.26,1.29,2.96,2.08.7.79,1.18,1.63,1.42,2.48.17.61.28,1.13.33,1.56.03-.14.07-.31.11-.53.09-.5.14-1.29.14-2.33,0-1.46-.26-2.66-.78-3.57-.52-.91-1.19-1.63-2.01-2.13-.84-.51-1.74-.88-2.67-1.11-.94-.22-1.86-.34-2.73-.34ZM68.87,60.05h0ZM100.46,11.22h0ZM100.72,11.22s0,0,0,0c0,0,0,0,0,0Z"/></svg>